# xmcd
# 
# Track frame offsets:
#     150
#     20215
#     39957
#     64002
#     85022
#     110025
#     127527
#     155912
#     179695
#     204440
#     226460
#     243877
# 
# Disc length: 3518
# 
# Revision: 20
# Processed by: cddbd v1.5.2PL0 Copyright (c) Steve Scherf et al.
# Submitted via: BonkEnc v1.0rc1
# 
DISCID=9b0dbc0c
DTITLE=Slash's Snakepit - Ain't Life Grand
DYEAR=2000
DGENRE=Hard Rock
TTITLE0=Been There Lately
TTITLE1=Just Like Anything
TTITLE2=Shine
TTITLE3=Mean Bone
TTITLE4=Back To The Moment
TTITLE5=Life's Sweet Drug
TTITLE6=Serial Killer
TTITLE7=The Truth
TTITLE8=Landslide
TTITLE9=Ain't Life Grand
TTITLE10=Speed Parade
TTITLE11=The Alien
EXTD=
EXTT0=
EXTT1=
EXTT2=
EXTT3=
EXTT4=
EXTT5=
EXTT6=
EXTT7=
EXTT8=
EXTT9=
EXTT10=
EXTT11=
PLAYORDER=
